<?xml version="1.0" standalone="no"?>
<!DOCTYPE svg PUBLIC "-//W3C//DTD SVG 20010904//EN"
 "http://www.w3.org/TR/2001/REC-SVG-20010904/DTD/svg10.dtd">
<svg version="1.0" xmlns="http://www.w3.org/2000/svg"
 width="900.000000pt" height="512.000000pt" viewBox="0 0 900.000000 512.000000"
 preserveAspectRatio="xMidYMid meet">

<g transform="translate(0.000000,512.000000) scale(0.100000,-0.100000)"
fill="#000000" stroke="none">
<path d="M4365 4469 c-286 -56 -515 -240 -623 -502 -58 -138 -63 -191 -60
-614 3 -367 4 -383 24 -409 38 -52 71 -69 132 -69 70 0 115 28 143 89 17 37
19 71 19 396 0 282 3 368 15 413 49 188 191 328 377 372 248 58 490 -74 590
-323 22 -55 23 -70 28 -454 5 -381 6 -398 26 -424 39 -53 71 -69 134 -69 63 0
95 16 134 69 20 26 21 42 24 399 3 397 -2 461 -43 580 -43 122 -102 214 -200
312 -118 118 -219 176 -381 220 -71 20 -269 28 -339 14z"/>
<path d="M2617 3212 c-10 -10 -17 -29 -17 -41 0 -13 45 -206 100 -429 54 -224
180 -738 279 -1142 124 -507 188 -751 207 -788 30 -59 85 -111 153 -144 l46
-23 1095 -3 c1221 -3 1149 -6 1246 67 82 62 100 102 169 384 310 1256 505
2059 505 2079 0 14 -8 32 -18 41 -17 15 -63 17 -454 17 l-436 0 -4 -142 c-3
-127 -6 -148 -27 -193 -32 -63 -92 -124 -156 -155 -41 -20 -65 -25 -135 -24
-72 0 -93 4 -137 27 -66 34 -116 84 -150 150 -25 48 -27 64 -31 195 l-4 142
-343 0 -343 0 -4 -137 c-3 -122 -7 -144 -29 -193 -34 -71 -88 -126 -158 -159
-77 -36 -192 -36 -266 -1 -63 31 -124 91 -156 155 -21 45 -24 66 -27 193 l-4
142 -442 0 c-416 0 -444 -1 -459 -18z"/>
</g>
</svg>
